<svg width="1024" height="1024" viewBox="0 0 1024 1024" fill="none" xmlns="http://www.w3.org/2000/svg">
  <defs>
    <linearGradient id="bg" x1="0" y1="0" x2="1024" y2="1024" gradientUnits="userSpaceOnUse">
      <stop offset="0%" stop-color="#C4933F"/>
      <stop offset="100%" stop-color="#8A5A1E"/>
    </linearGradient>
  </defs>
  <rect width="1024" height="1024" rx="224" fill="url(#bg)"/>
  <path d="M375.094 644.438V454.412C375.094 446.636 371.206 442.748 363.43 442.748H352.252C348.364 442.748 346.42 441.128 346.42 437.888C346.42 434.648 348.364 432.866 352.252 432.542C367.48 430.922 375.094 424.28 375.094 412.616V409.7C375.094 392.852 377.524 377.138 382.384 362.558C387.568 347.978 394.858 336.152 404.254 327.08C413.974 318.008 425.8 313.472 439.732 313.472C452.692 313.472 463.546 317.198 472.294 324.65C481.042 332.102 485.416 341.012 485.416 351.38C485.416 357.536 483.796 362.234 480.556 365.474C477.64 368.39 473.59 369.848 468.406 369.848C461.926 369.848 457.228 367.742 454.312 363.53C451.72 359.318 449.614 354.62 447.994 349.436C446.374 343.928 444.268 339.068 441.676 334.856C439.408 330.644 435.196 328.538 429.04 328.538C422.56 328.538 417.376 332.264 413.488 339.716C409.924 346.844 408.142 360.452 408.142 380.54V423.308C408.142 427.196 410.086 429.14 413.974 429.14H455.77C460.63 429.14 463.06 431.408 463.06 435.944C463.06 440.48 460.63 442.748 455.77 442.748H413.974C410.086 442.748 408.142 444.692 408.142 448.58V644.438C408.142 651.242 409.114 655.94 411.058 658.532C413.326 661.124 417.862 662.744 424.666 663.392L450.424 665.822C453.988 666.47 455.77 668.252 455.77 671.168C455.77 675.056 453.34 677 448.48 677H347.392C342.532 677 340.102 675.218 340.102 671.654C340.102 668.09 342.208 666.146 346.42 665.822L358.57 664.85C365.374 664.202 369.748 662.42 371.692 659.504C373.96 656.264 375.094 651.242 375.094 644.438ZM476.509 677C471.649 677 469.219 675.218 469.219 671.654C469.219 668.738 471.325 666.794 475.537 665.822L481.369 664.85C488.173 663.554 492.547 661.61 494.491 659.018C496.759 656.102 497.893 651.242 497.893 644.438V481.142C497.893 475.31 496.921 471.422 494.977 469.478C493.357 467.21 490.279 465.752 485.743 465.104L475.537 463.646C471.325 463.322 469.219 461.54 469.219 458.3C469.219 455.708 471.811 453.926 476.995 452.954C487.039 451.334 494.653 448.742 499.837 445.178C505.345 441.614 511.015 437.24 516.847 432.056C519.763 429.14 522.193 427.682 524.137 427.682C527.053 427.682 528.511 429.626 528.511 433.514V455.384C528.511 458.3 529.483 460.244 531.427 461.216C533.695 461.864 536.125 460.892 538.717 458.3C551.677 445.988 563.017 437.564 572.737 433.028C582.781 428.492 593.311 426.224 604.327 426.224C618.907 426.224 630.571 431.408 639.319 441.776C648.067 451.82 652.441 466.724 652.441 486.488V644.438C652.441 651.242 653.413 656.102 655.357 659.018C657.625 661.61 662.161 663.392 668.965 664.364L679.657 665.822C683.221 666.47 685.003 668.414 685.003 671.654C685.003 675.218 683.059 677 679.171 677H597.523C592.987 677 590.719 675.218 590.719 671.654C590.719 668.414 592.501 666.47 596.065 665.822L602.869 664.85C609.673 663.878 614.047 661.934 615.991 659.018C618.259 656.102 619.393 651.242 619.393 644.438V491.834C619.393 475.958 616.477 464.78 610.645 458.3C604.813 451.82 596.551 448.58 585.859 448.58C575.491 448.58 566.095 451.658 557.671 457.814C549.571 463.646 543.091 471.584 538.231 481.628C533.371 491.348 530.941 502.202 530.941 514.19V644.438C530.941 651.242 531.913 656.102 533.857 659.018C536.125 661.934 540.661 663.716 547.465 664.364L560.587 665.822C564.151 666.47 565.933 668.252 565.933 671.168C565.933 675.056 563.503 677 558.643 677H476.509Z" fill="white"/>
</svg>
