<svg width="24" height="24" viewBox="0 0 24 24" fill="none" xmlns="http://www.w3.org/2000/svg">
<path fill-rule="evenodd" clip-rule="evenodd" d="M8.50006 20.0251C8.63803 20.0251 8.75005 20.1371 8.75005 20.275C8.75005 20.413 8.63803 20.525 8.50006 20.525C8.36209 20.525 8.25006 20.413 8.25006 20.275C8.25006 20.1371 8.36209 20.0251 8.50006 20.0251ZM9.20006 20.0251C9.33803 20.0251 9.45005 20.1371 9.45005 20.275C9.45005 20.413 9.33803 20.525 9.20006 20.525C9.06209 20.525 8.95006 20.413 8.95006 20.275C8.95006 20.1371 9.06209 20.0251 9.20006 20.0251ZM9.90006 20.0251C10.038 20.0251 10.1501 20.1371 10.1501 20.275C10.1501 20.413 10.038 20.525 9.90006 20.525C9.76209 20.525 9.65006 20.413 9.65006 20.275C9.65006 20.1371 9.76209 20.0251 9.90006 20.0251ZM10.6001 20.0251C10.738 20.0251 10.8501 20.1371 10.8501 20.275C10.8501 20.413 10.738 20.525 10.6001 20.525C10.4621 20.525 10.3501 20.413 10.3501 20.275C10.3501 20.1371 10.4621 20.0251 10.6001 20.0251ZM11.3001 20.0251C11.438 20.0251 11.5501 20.1371 11.5501 20.275C11.5501 20.413 11.438 20.525 11.3001 20.525C11.1621 20.525 11.0501 20.413 11.0501 20.275C11.0501 20.1371 11.1621 20.0251 11.3001 20.0251ZM12.0001 20.0251C12.138 20.0251 12.2501 20.1371 12.2501 20.275C12.2501 20.413 12.138 20.525 12.0001 20.525C11.8621 20.525 11.7501 20.413 11.7501 20.275C11.7501 20.1371 11.8621 20.0251 12.0001 20.0251ZM12.7001 20.0251C12.838 20.0251 12.9501 20.1371 12.9501 20.275C12.9501 20.413 12.838 20.525 12.7001 20.525C12.5621 20.525 12.4501 20.413 12.4501 20.275C12.4501 20.1371 12.5621 20.0251 12.7001 20.0251ZM13.4001 20.0251C13.538 20.0251 13.6501 20.1371 13.6501 20.275C13.6501 20.413 13.538 20.525 13.4001 20.525C13.2621 20.525 13.1501 20.413 13.1501 20.275C13.1501 20.1371 13.2621 20.0251 13.4001 20.0251ZM14.1001 20.0251C14.238 20.0251 14.3501 20.1371 14.3501 20.275C14.3501 20.413 14.238 20.525 14.1001 20.525C13.9621 20.525 13.8501 20.413 13.8501 20.275C13.8501 20.1371 13.9621 20.0251 14.1001 20.0251ZM14.8001 20.0251C14.938 20.0251 15.0501 20.1371 15.0501 20.275C15.0501 20.413 14.938 20.525 14.8001 20.525C14.6621 20.525 14.5501 20.413 14.5501 20.275C14.5501 20.1371 14.6621 20.0251 14.8001 20.0251ZM15.5001 20.0251C15.638 20.0251 15.7501 20.1371 15.7501 20.275C15.7501 20.413 15.638 20.525 15.5001 20.525C15.3621 20.525 15.2501 20.413 15.2501 20.275C15.2501 20.1371 15.3621 20.0251 15.5001 20.0251ZM5.00014 19.325C5.13811 19.325 5.25014 19.437 5.25014 19.575C5.25014 19.713 5.13811 19.825 5.00014 19.825C4.86208 19.825 4.75006 19.713 4.75006 19.575C4.75006 19.437 4.86208 19.325 5.00014 19.325ZM5.70005 19.325C5.83812 19.325 5.95014 19.437 5.95014 19.575C5.95014 19.713 5.83812 19.825 5.70005 19.825C5.56208 19.825 5.45006 19.713 5.45006 19.575C5.45006 19.437 5.56208 19.325 5.70005 19.325ZM6.40005 19.325C6.53811 19.325 6.65014 19.437 6.65014 19.575C6.65014 19.713 6.53811 19.825 6.40005 19.825C6.26208 19.825 6.15006 19.713 6.15006 19.575C6.15006 19.437 6.26208 19.325 6.40005 19.325ZM7.10005 19.325C7.23803 19.325 7.35005 19.437 7.35005 19.575C7.35005 19.713 7.23803 19.825 7.10005 19.825C6.96208 19.825 6.85006 19.713 6.85006 19.575C6.85006 19.437 6.96208 19.325 7.10005 19.325ZM7.80006 19.325C7.93803 19.325 8.05005 19.437 8.05005 19.575C8.05005 19.713 7.93803 19.825 7.80006 19.825C7.66208 19.825 7.55006 19.713 7.55006 19.575C7.55006 19.437 7.66208 19.325 7.80006 19.325ZM8.50006 19.325C8.63803 19.325 8.75005 19.437 8.75005 19.575C8.75005 19.713 8.63803 19.825 8.50006 19.825C8.36209 19.825 8.25006 19.713 8.25006 19.575C8.25006 19.437 8.36209 19.325 8.50006 19.325ZM9.20006 19.325C9.33803 19.325 9.45005 19.437 9.45005 19.575C9.45005 19.713 9.33803 19.825 9.20006 19.825C9.06209 19.825 8.95006 19.713 8.95006 19.575C8.95006 19.437 9.06209 19.325 9.20006 19.325ZM9.90006 19.325C10.038 19.325 10.1501 19.437 10.1501 19.575C10.1501 19.713 10.038 19.825 9.90006 19.825C9.76209 19.825 9.65006 19.713 9.65006 19.575C9.65006 19.437 9.76209 19.325 9.90006 19.325ZM10.6001 19.325C10.738 19.325 10.8501 19.437 10.8501 19.575C10.8501 19.713 10.738 19.825 10.6001 19.825C10.4621 19.825 10.3501 19.713 10.3501 19.575C10.3501 19.437 10.4621 19.325 10.6001 19.325ZM11.3001 19.325C11.438 19.325 11.5501 19.437 11.5501 19.575C11.5501 19.713 11.438 19.825 11.3001 19.825C11.1621 19.825 11.0501 19.713 11.0501 19.575C11.0501 19.437 11.1621 19.325 11.3001 19.325ZM12.0001 19.325C12.138 19.325 12.2501 19.437 12.2501 19.575C12.2501 19.713 12.138 19.825 12.0001 19.825C11.8621 19.825 11.7501 19.713 11.7501 19.575C11.7501 19.437 11.8621 19.325 12.0001 19.325ZM12.7001 19.325C12.838 19.325 12.9501 19.437 12.9501 19.575C12.9501 19.713 12.838 19.825 12.7001 19.825C12.5621 19.825 12.4501 19.713 12.4501 19.575C12.4501 19.437 12.5621 19.325 12.7001 19.325ZM13.4001 19.325C13.538 19.325 13.6501 19.437 13.6501 19.575C13.6501 19.713 13.538 19.825 13.4001 19.825C13.2621 19.825 13.1501 19.713 13.1501 19.575C13.1501 19.437 13.2621 19.325 13.4001 19.325ZM14.1001 19.325C14.238 19.325 14.3501 19.437 14.3501 19.575C14.3501 19.713 14.238 19.825 14.1001 19.825C13.9621 19.825 13.8501 19.713 13.8501 19.575C13.8501 19.437 13.9621 19.325 14.1001 19.325ZM14.8001 19.325C14.938 19.325 15.0501 19.437 15.0501 19.575C15.0501 19.713 14.938 19.825 14.8001 19.825C14.6621 19.825 14.5501 19.713 14.5501 19.575C14.5501 19.437 14.6621 19.325 14.8001 19.325ZM15.5001 19.325C15.638 19.325 15.7501 19.437 15.7501 19.575C15.7501 19.713 15.638 19.825 15.5001 19.825C15.3621 19.825 15.2501 19.713 15.2501 19.575C15.2501 19.437 15.3621 19.325 15.5001 19.325ZM16.2001 19.325C16.338 19.325 16.4501 19.437 16.4501 19.575C16.4501 19.713 16.338 19.825 16.2001 19.825C16.0621 19.825 15.9501 19.713 15.9501 19.575C15.9501 19.437 16.0621 19.325 16.2001 19.325ZM16.9001 19.325C17.038 19.325 17.1501 19.437 17.1501 19.575C17.1501 19.713 17.038 19.825 16.9001 19.825C16.7621 19.825 16.6501 19.713 16.6501 19.575C16.6501 19.437 16.7621 19.325 16.9001 19.325ZM17.6001 19.325C17.738 19.325 17.8501 19.437 17.8501 19.575C17.8501 19.713 17.738 19.825 17.6001 19.825C17.4621 19.825 17.3501 19.713 17.3501 19.575C17.3501 19.437 17.4621 19.325 17.6001 19.325ZM18.3001 19.325C18.438 19.325 18.5501 19.437 18.5501 19.575C18.5501 19.713 18.438 19.825 18.3001 19.825C18.1621 19.825 18.0501 19.713 18.0501 19.575C18.0501 19.437 18.1621 19.325 18.3001 19.325ZM19.0001 19.325C19.138 19.325 19.2501 19.437 19.2501 19.575C19.2501 19.713 19.138 19.825 19.0001 19.825C18.8621 19.825 18.7501 19.713 18.7501 19.575C18.7501 19.437 18.8621 19.325 19.0001 19.325ZM2.90014 18.625C3.03811 18.625 3.15013 18.737 3.15013 18.875C3.15013 19.013 3.03811 19.125 2.90014 19.125C2.76217 19.125 2.65015 19.013 2.65015 18.875C2.65015 18.737 2.76217 18.625 2.90014 18.625ZM3.60014 18.625C3.73812 18.625 3.85013 18.737 3.85013 18.875C3.85013 19.013 3.73812 19.125 3.60014 19.125C3.46217 19.125 3.35015 19.013 3.35015 18.875C3.35015 18.737 3.46217 18.625 3.60014 18.625ZM4.30014 18.625C4.43811 18.625 4.55014 18.737 4.55014 18.875C4.55014 19.013 4.43811 19.125 4.30014 19.125C4.16208 19.125 4.05015 19.013 4.05015 18.875C4.05015 18.737 4.16208 18.625 4.30014 18.625ZM5.00014 18.625C5.13811 18.625 5.25014 18.737 5.25014 18.875C5.25014 19.013 5.13811 19.125 5.00014 19.125C4.86208 19.125 4.75006 19.013 4.75006 18.875C4.75006 18.737 4.86208 18.625 5.00014 18.625ZM5.70005 18.625C5.83812 18.625 5.95014 18.737 5.95014 18.875C5.95014 19.013 5.83812 19.125 5.70005 19.125C5.56208 19.125 5.45006 19.013 5.45006 18.875C5.45006 18.737 5.56208 18.625 5.70005 18.625ZM6.40005 18.625C6.53811 18.625 6.65014 18.737 6.65014 18.875C6.65014 19.013 6.53811 19.125 6.40005 19.125C6.26208 19.125 6.15006 19.013 6.15006 18.875C6.15006 18.737 6.26208 18.625 6.40005 18.625ZM7.10005 18.625C7.23803 18.625 7.35005 18.737 7.35005 18.875C7.35005 19.013 7.23803 19.125 7.10005 19.125C6.96208 19.125 6.85006 19.013 6.85006 18.875C6.85006 18.737 6.96208 18.625 7.10005 18.625ZM7.80006 18.625C7.93803 18.625 8.05005 18.737 8.05005 18.875C8.05005 19.013 7.93803 19.125 7.80006 19.125C7.66208 19.125 7.55006 19.013 7.55006 18.875C7.55006 18.737 7.66208 18.625 7.80006 18.625ZM8.50006 18.625C8.63803 18.625 8.75005 18.737 8.75005 18.875C8.75005 19.013 8.63803 19.125 8.50006 19.125C8.36209 19.125 8.25006 19.013 8.25006 18.875C8.25006 18.737 8.36209 18.625 8.50006 18.625ZM9.20006 18.625C9.33803 18.625 9.45005 18.737 9.45005 18.875C9.45005 19.013 9.33803 19.125 9.20006 19.125C9.06209 19.125 8.95006 19.013 8.95006 18.875C8.95006 18.737 9.06209 18.625 9.20006 18.625ZM9.90006 18.625C10.038 18.625 10.1501 18.737 10.1501 18.875C10.1501 19.013 10.038 19.125 9.90006 19.125C9.76209 19.125 9.65006 19.013 9.65006 18.875C9.65006 18.737 9.76209 18.625 9.90006 18.625ZM10.6001 18.625C10.738 18.625 10.8501 18.737 10.8501 18.875C10.8501 19.013 10.738 19.125 10.6001 19.125C10.4621 19.125 10.3501 19.013 10.3501 18.875C10.3501 18.737 10.4621 18.625 10.6001 18.625ZM11.3001 18.625C11.438 18.625 11.5501 18.737 11.5501 18.875C11.5501 19.013 11.438 19.125 11.3001 19.125C11.1621 19.125 11.0501 19.013 11.0501 18.875C11.0501 18.737 11.1621 18.625 11.3001 18.625ZM12.0001 18.625C12.138 18.625 12.2501 18.737 12.2501 18.875C12.2501 19.013 12.138 19.125 12.0001 19.125C11.8621 19.125 11.7501 19.013 11.7501 18.875C11.7501 18.737 11.8621 18.625 12.0001 18.625ZM12.7001 18.625C12.838 18.625 12.9501 18.737 12.9501 18.875C12.9501 19.013 12.838 19.125 12.7001 19.125C12.5621 19.125 12.4501 19.013 12.4501 18.875C12.4501 18.737 12.5621 18.625 12.7001 18.625ZM13.4001 18.625C13.538 18.625 13.6501 18.737 13.6501 18.875C13.6501 19.013 13.538 19.125 13.4001 19.125C13.2621 19.125 13.1501 19.013 13.1501 18.875C13.1501 18.737 13.2621 18.625 13.4001 18.625ZM14.1001 18.625C14.238 18.625 14.3501 18.737 14.3501 18.875C14.3501 19.013 14.238 19.125 14.1001 19.125C13.9621 19.125 13.8501 19.013 13.8501 18.875C13.8501 18.737 13.9621 18.625 14.1001 18.625ZM14.8001 18.625C14.938 18.625 15.0501 18.737 15.0501 18.875C15.0501 19.013 14.938 19.125 14.8001 19.125C14.6621 19.125 14.5501 19.013 14.5501 18.875C14.5501 18.737 14.6621 18.625 14.8001 18.625ZM15.5001 18.625C15.638 18.625 15.7501 18.737 15.7501 18.875C15.7501 19.013 15.638 19.125 15.5001 19.125C15.3621 19.125 15.2501 19.013 15.2501 18.875C15.2501 18.737 15.3621 18.625 15.5001 18.625ZM16.2001 18.625C16.338 18.625 16.4501 18.737 16.4501 18.875C16.4501 19.013 16.338 19.125 16.2001 19.125C16.0621 19.125 15.9501 19.013 15.9501 18.875C15.9501 18.737 16.0621 18.625 16.2001 18.625ZM16.9001 18.625C17.038 18.625 17.1501 18.737 17.1501 18.875C17.1501 19.013 17.038 19.125 16.9001 19.125C16.7621 19.125 16.6501 19.013 16.6501 18.875C16.6501 18.737 16.7621 18.625 16.9001 18.625ZM17.6001 18.625C17.738 18.625 17.8501 18.737 17.8501 18.875C17.8501 19.013 17.738 19.125 17.6001 19.125C17.4621 19.125 17.3501 19.013 17.3501 18.875C17.3501 18.737 17.4621 18.625 17.6001 18.625ZM18.3001 18.625C18.438 18.625 18.5501 18.737 18.5501 18.875C18.5501 19.013 18.438 19.125 18.3001 19.125C18.1621 19.125 18.0501 19.013 18.0501 18.875C18.0501 18.737 18.1621 18.625 18.3001 18.625ZM19.0001 18.625C19.138 18.625 19.2501 18.737 19.2501 18.875C19.2501 19.013 19.138 19.125 19.0001 19.125C18.8621 19.125 18.7501 19.013 18.7501 18.875C18.7501 18.737 18.8621 18.625 19.0001 18.625ZM19.7001 18.625C19.838 18.625 19.9501 18.737 19.9501 18.875C19.9501 19.013 19.838 19.125 19.7001 19.125C19.5621 19.125 19.4501 19.013 19.4501 18.875C19.4501 18.737 19.5621 18.625 19.7001 18.625ZM20.4001 18.625C20.538 18.625 20.6501 18.737 20.6501 18.875C20.6501 19.013 20.538 19.125 20.4001 19.125C20.2621 19.125 20.1501 19.013 20.1501 18.875C20.1501 18.737 20.2621 18.625 20.4001 18.625ZM21.1001 18.625C21.238 18.625 21.3501 18.737 21.3501 18.875C21.3501 19.013 21.238 19.125 21.1001 19.125C20.9621 19.125 20.8501 19.013 20.8501 18.875C20.8501 18.737 20.9621 18.625 21.1001 18.625ZM2.90014 17.925C3.03811 17.925 3.15013 18.037 3.15013 18.175C3.15013 18.313 3.03811 18.425 2.90014 18.425C2.76217 18.425 2.65015 18.313 2.65015 18.175C2.65015 18.037 2.76217 17.925 2.90014 17.925ZM3.60014 17.925C3.73812 17.925 3.85013 18.037 3.85013 18.175C3.85013 18.313 3.73812 18.425 3.60014 18.425C3.46217 18.425 3.35015 18.313 3.35015 18.175C3.35015 18.037 3.46217 17.925 3.60014 17.925ZM4.30014 17.925C4.43811 17.925 4.55014 18.037 4.55014 18.175C4.55014 18.313 4.43811 18.425 4.30014 18.425C4.16208 18.425 4.05015 18.313 4.05015 18.175C4.05015 18.037 4.16208 17.925 4.30014 17.925ZM5.00014 17.925C5.13811 17.925 5.25014 18.037 5.25014 18.175C5.25014 18.313 5.13811 18.425 5.00014 18.425C4.86208 18.425 4.75006 18.313 4.75006 18.175C4.75006 18.037 4.86208 17.925 5.00014 17.925ZM5.70005 17.925C5.83812 17.925 5.95014 18.037 5.95014 18.175C5.95014 18.313 5.83812 18.425 5.70005 18.425C5.56208 18.425 5.45006 18.313 5.45006 18.175C5.45006 18.037 5.56208 17.925 5.70005 17.925ZM6.40005 17.925C6.53811 17.925 6.65014 18.037 6.65014 18.175C6.65014 18.313 6.53811 18.425 6.40005 18.425C6.26208 18.425 6.15006 18.313 6.15006 18.175C6.15006 18.037 6.26208 17.925 6.40005 17.925ZM7.10005 17.925C7.23803 17.925 7.35005 18.037 7.35005 18.175C7.35005 18.313 7.23803 18.425 7.10005 18.425C6.96208 18.425 6.85006 18.313 6.85006 18.175C6.85006 18.037 6.96208 17.925 7.10005 17.925ZM7.80006 17.925C7.93803 17.925 8.05005 18.037 8.05005 18.175C8.05005 18.313 7.93803 18.425 7.80006 18.425C7.66208 18.425 7.55006 18.313 7.55006 18.175C7.55006 18.037 7.66208 17.925 7.80006 17.925ZM8.50006 17.925C8.63803 17.925 8.75005 18.037 8.75005 18.175C8.75005 18.313 8.63803 18.425 8.50006 18.425C8.36209 18.425 8.25006 18.313 8.25006 18.175C8.25006 18.037 8.36209 17.925 8.50006 17.925ZM9.20006 17.925C9.33803 17.925 9.45005 18.037 9.45005 18.175C9.45005 18.313 9.33803 18.425 9.20006 18.425C9.06209 18.425 8.95006 18.313 8.95006 18.175C8.95006 18.037 9.06209 17.925 9.20006 17.925ZM9.90006 17.925C10.038 17.925 10.1501 18.037 10.1501 18.175C10.1501 18.313 10.038 18.425 9.90006 18.425C9.76209 18.425 9.65006 18.313 9.65006 18.175C9.65006 18.037 9.76209 17.925 9.90006 17.925ZM10.6001 17.925C10.738 17.925 10.8501 18.037 10.8501 18.175C10.8501 18.313 10.738 18.425 10.6001 18.425C10.4621 18.425 10.3501 18.313 10.3501 18.175C10.3501 18.037 10.4621 17.925 10.6001 17.925ZM11.3001 17.925C11.438 17.925 11.5501 18.037 11.5501 18.175C11.5501 18.313 11.438 18.425 11.3001 18.425C11.1621 18.425 11.0501 18.313 11.0501 18.175C11.0501 18.037 11.1621 17.925 11.3001 17.925ZM12.0001 17.925C12.138 17.925 12.2501 18.037 12.2501 18.175C12.2501 18.313 12.138 18.425 12.0001 18.425C11.8621 18.425 11.7501 18.313 11.7501 18.175C11.7501 18.037 11.8621 17.925 12.0001 17.925ZM12.7001 17.925C12.838 17.925 12.9501 18.037 12.9501 18.175C12.9501 18.313 12.838 18.425 12.7001 18.425C12.5621 18.425 12.4501 18.313 12.4501 18.175C12.4501 18.037 12.5621 17.925 12.7001 17.925ZM13.4001 17.925C13.538 17.925 13.6501 18.037 13.6501 18.175C13.6501 18.313 13.538 18.425 13.4001 18.425C13.2621 18.425 13.1501 18.313 13.1501 18.175C13.1501 18.037 13.2621 17.925 13.4001 17.925ZM14.1001 17.925C14.238 17.925 14.3501 18.037 14.3501 18.175C14.3501 18.313 14.238 18.425 14.1001 18.425C13.9621 18.425 13.8501 18.313 13.8501 18.175C13.8501 18.037 13.9621 17.925 14.1001 17.925ZM14.8001 17.925C14.938 17.925 15.0501 18.037 15.0501 18.175C15.0501 18.313 14.938 18.425 14.8001 18.425C14.6621 18.425 14.5501 18.313 14.5501 18.175C14.5501 18.037 14.6621 17.925 14.8001 17.925ZM15.5001 17.925C15.638 17.925 15.7501 18.037 15.7501 18.175C15.7501 18.313 15.638 18.425 15.5001 18.425C15.3621 18.425 15.2501 18.313 15.2501 18.175C15.2501 18.037 15.3621 17.925 15.5001 17.925ZM16.2001 17.925C16.338 17.925 16.4501 18.037 16.4501 18.175C16.4501 18.313 16.338 18.425 16.2001 18.425C16.0621 18.425 15.9501 18.313 15.9501 18.175C15.9501 18.037 16.0621 17.925 16.2001 17.925ZM16.9001 17.925C17.038 17.925 17.1501 18.037 17.1501 18.175C17.1501 18.313 17.038 18.425 16.9001 18.425C16.7621 18.425 16.6501 18.313 16.6501 18.175C16.6501 18.037 16.7621 17.925 16.9001 17.925ZM17.6001 17.925C17.738 17.925 17.8501 18.037 17.8501 18.175C17.8501 18.313 17.738 18.425 17.6001 18.425C17.4621 18.425 17.3501 18.313 17.3501 18.175C17.3501 18.037 17.4621 17.925 17.6001 17.925ZM18.3001 17.925C18.438 17.925 18.5501 18.037 18.5501 18.175C18.5501 18.313 18.438 18.425 18.3001 18.425C18.1621 18.425 18.0501 18.313 18.0501 18.175C18.0501 18.037 18.1621 17.925 18.3001 17.925ZM19.0001 17.925C19.138 17.925 19.2501 18.037 19.2501 18.175C19.2501 18.313 19.138 18.425 19.0001 18.425C18.8621 18.425 18.7501 18.313 18.7501 18.175C18.7501 18.037 18.8621 17.925 19.0001 17.925ZM19.7001 17.925C19.838 17.925 19.9501 18.037 19.9501 18.175C19.9501 18.313 19.838 18.425 19.7001 18.425C19.5621 18.425 19.4501 18.313 19.4501 18.175C19.4501 18.037 19.5621 17.925 19.7001 17.925ZM20.4001 17.925C20.538 17.925 20.6501 18.037 20.6501 18.175C20.6501 18.313 20.538 18.425 20.4001 18.425C20.2621 18.425 20.1501 18.313 20.1501 18.175C20.1501 18.037 20.2621 17.925 20.4001 17.925ZM21.1001 17.925C21.238 17.925 21.3501 18.037 21.3501 18.175C21.3501 18.313 21.238 18.425 21.1001 18.425C20.9621 18.425 20.8501 18.313 20.8501 18.175C20.8501 18.037 20.9621 17.925 21.1001 17.925ZM2.90014 17.225C3.03811 17.225 3.15013 17.3371 3.15013 17.475C3.15013 17.613 3.03811 17.7251 2.90014 17.7251C2.76217 17.7251 2.65015 17.613 2.65015 17.475C2.65015 17.3371 2.76217 17.225 2.90014 17.225ZM3.60014 17.225C3.73812 17.225 3.85013 17.3371 3.85013 17.475C3.85013 17.613 3.73812 17.7251 3.60014 17.7251C3.46217 17.7251 3.35015 17.613 3.35015 17.475C3.35015 17.3371 3.46217 17.225 3.60014 17.225ZM4.30014 17.225C4.43811 17.225 4.55014 17.3371 4.55014 17.475C4.55014 17.613 4.43811 17.7251 4.30014 17.7251C4.16208 17.7251 4.05015 17.613 4.05015 17.475C4.05015 17.3371 4.16208 17.225 4.30014 17.225ZM5.00014 17.225C5.13811 17.225 5.25014 17.3371 5.25014 17.475C5.25014 17.613 5.13811 17.7251 5.00014 17.7251C4.86208 17.7251 4.75006 17.613 4.75006 17.475C4.75006 17.3371 4.86208 17.225 5.00014 17.225ZM19.0001 17.225C19.138 17.225 19.2501 17.3371 19.2501 17.475C19.2501 17.613 19.138 17.7251 19.0001 17.7251C18.8621 17.7251 18.7501 17.613 18.7501 17.475C18.7501 17.3371 18.8621 17.225 19.0001 17.225ZM19.7001 17.225C19.838 17.225 19.9501 17.3371 19.9501 17.475C19.9501 17.613 19.838 17.7251 19.7001 17.7251C19.5621 17.7251 19.4501 17.613 19.4501 17.475C19.4501 17.3371 19.5621 17.225 19.7001 17.225ZM20.4001 17.225C20.538 17.225 20.6501 17.3371 20.6501 17.475C20.6501 17.613 20.538 17.7251 20.4001 17.7251C20.2621 17.7251 20.1501 17.613 20.1501 17.475C20.1501 17.3371 20.2621 17.225 20.4001 17.225ZM21.1001 17.225C21.238 17.225 21.3501 17.3371 21.3501 17.475C21.3501 17.613 21.238 17.7251 21.1001 17.7251C20.9621 17.7251 20.8501 17.613 20.8501 17.475C20.8501 17.3371 20.9621 17.225 21.1001 17.225ZM3.60014 16.525C3.73812 16.525 3.85013 16.6371 3.85013 16.7751C3.85013 16.913 3.73812 17.0251 3.60014 17.0251C3.46217 17.0251 3.35015 16.913 3.35015 16.7751C3.35015 16.6371 3.46217 16.525 3.60014 16.525ZM4.30014 16.525C4.43811 16.525 4.55014 16.6371 4.55014 16.7751C4.55014 16.913 4.43811 17.0251 4.30014 17.0251C4.16208 17.0251 4.05015 16.913 4.05015 16.7751C4.05015 16.6371 4.16208 16.525 4.30014 16.525ZM5.00014 16.525C5.13811 16.525 5.25014 16.6371 5.25014 16.7751C5.25014 16.913 5.13811 17.0251 5.00014 17.0251C4.86208 17.0251 4.75006 16.913 4.75006 16.7751C4.75006 16.6371 4.86208 16.525 5.00014 16.525ZM19.0001 16.525C19.138 16.525 19.2501 16.6371 19.2501 16.7751C19.2501 16.913 19.138 17.0251 19.0001 17.0251C18.8621 17.0251 18.7501 16.913 18.7501 16.7751C18.7501 16.6371 18.8621 16.525 19.0001 16.525ZM19.7001 16.525C19.838 16.525 19.9501 16.6371 19.9501 16.7751C19.9501 16.913 19.838 17.0251 19.7001 17.0251C19.5621 17.0251 19.4501 16.913 19.4501 16.7751C19.4501 16.6371 19.5621 16.525 19.7001 16.525ZM20.4001 16.525C20.538 16.525 20.6501 16.6371 20.6501 16.7751C20.6501 16.913 20.538 17.0251 20.4001 17.0251C20.2621 17.0251 20.1501 16.913 20.1501 16.7751C20.1501 16.6371 20.2621 16.525 20.4001 16.525ZM4.30014 15.8251C4.43811 15.8251 4.55014 15.9371 4.55014 16.0751C4.55014 16.2131 4.43811 16.325 4.30014 16.325C4.16208 16.325 4.05015 16.2131 4.05015 16.0751C4.05015 15.9371 4.16208 15.8251 4.30014 15.8251ZM5.00014 15.8251C5.13811 15.8251 5.25014 15.9371 5.25014 16.0751C5.25014 16.2131 5.13811 16.325 5.00014 16.325C4.86208 16.325 4.75006 16.2131 4.75006 16.0751C4.75006 15.9371 4.86208 15.8251 5.00014 15.8251ZM19.0001 15.8251C19.138 15.8251 19.2501 15.9371 19.2501 16.0751C19.2501 16.2131 19.138 16.325 19.0001 16.325C18.8621 16.325 18.7501 16.2131 18.7501 16.0751C18.7501 15.9371 18.8621 15.8251 19.0001 15.8251ZM19.7001 15.8251C19.838 15.8251 19.9501 15.9371 19.9501 16.0751C19.9501 16.2131 19.838 16.325 19.7001 16.325C19.5621 16.325 19.4501 16.2131 19.4501 16.0751C19.4501 15.9371 19.5621 15.8251 19.7001 15.8251ZM5.00014 15.1251C5.13811 15.1251 5.25014 15.237 5.25014 15.375C5.25014 15.513 5.13811 15.625 5.00014 15.625C4.86208 15.625 4.75006 15.513 4.75006 15.375C4.75006 15.237 4.86208 15.1251 5.00014 15.1251ZM19.0001 15.1251C19.138 15.1251 19.2501 15.237 19.2501 15.375C19.2501 15.513 19.138 15.625 19.0001 15.625C18.8621 15.625 18.7501 15.513 18.7501 15.375C18.7501 15.237 18.8621 15.1251 19.0001 15.1251ZM6.02507 11.0456C5.56017 10.6381 5.27508 10.0818 5.27508 9.47508V8.475C5.27508 8.32128 5.33283 8.16805 5.45673 8.02255C5.59507 7.86001 5.82861 7.70024 6.14942 7.55753C6.21859 7.52681 6.29215 7.49657 6.3699 7.46706C7.19655 5.14181 9.4177 3.47498 12.0251 3.47498C14.6324 3.47498 16.8536 5.14181 17.6803 7.46706C17.7581 7.49657 17.8316 7.52681 17.9007 7.55753C18.2216 7.70024 18.455 7.86001 18.5935 8.02255C18.7173 8.16805 18.775 8.32128 18.775 8.475V9.47508C18.775 10.0818 18.49 10.6381 18.025 11.0456V16.8445C18.025 17.1756 17.7562 17.4445 17.4251 17.4445H6.6251C6.29397 17.4445 6.02507 17.1756 6.02507 16.8445V11.0456ZM6.18478 8.09512C6.06143 8.15982 5.96028 8.22695 5.88481 8.29734C5.82149 8.3566 5.77507 8.41126 5.77507 8.475V9.47508C5.77507 9.77478 5.8658 10.0551 6.02507 10.2998C6.38599 10.8539 7.09914 11.225 7.90843 11.225C8.21644 11.225 8.5102 11.1714 8.77591 11.0744C8.93206 11.0142 9.04746 10.8793 9.08264 10.7156C9.18078 10.2509 9.55467 9.94555 10.0502 9.74684L10.0766 9.73644C10.1392 9.71213 10.2048 9.68975 10.2731 9.66931C10.7496 9.5266 11.3594 9.47508 12.0251 9.47508C12.6907 9.47508 13.3006 9.5266 13.7771 9.66931C13.8453 9.68975 13.9109 9.71213 13.9736 9.73644L13.9999 9.74684C14.4957 9.94555 14.8684 10.2513 14.9797 10.7135C15.0141 10.8727 15.1264 11.0038 15.2785 11.0622C15.5396 11.1713 15.8336 11.225 16.1418 11.225C16.9511 11.225 17.6641 10.8539 18.025 10.2998C18.1844 10.0551 18.275 9.77478 18.275 9.47508V8.475C18.275 8.41126 18.2287 8.3566 18.1653 8.29734C18.0899 8.22695 17.9888 8.15982 17.8653 8.09512C17.8132 8.06779 17.7572 8.04094 17.6975 8.01433C16.6344 7.54132 14.4917 7.22506 12.0251 7.22506C9.55851 7.22506 7.41575 7.54132 6.35273 8.01433C6.29297 8.04094 6.23686 8.06779 6.18478 8.09512ZM12.0251 9.97506C10.6453 9.97506 9.52507 10.1816 9.52507 11.1751C9.52507 12.1685 10.7751 12.975 12.0251 12.975C13.2751 12.975 14.525 12.1685 14.525 11.1751C14.525 10.1816 13.4048 9.97506 12.0251 9.97506ZM13.0251 10.975C13.301 10.975 13.5251 11.1991 13.5251 11.475C13.5251 11.751 13.301 11.975 13.0251 11.975C12.7491 11.975 12.5251 11.751 12.5251 11.475C12.5251 11.1991 12.7491 10.975 13.0251 10.975ZM11.0251 10.975C11.3011 10.975 11.5251 11.1991 11.5251 11.475C11.5251 11.751 11.3011 11.975 11.0251 11.975C10.7491 11.975 10.525 11.751 10.525 11.475C10.525 11.1991 10.7491 10.975 11.0251 10.975Z" fill="black"/>
</svg>
